# xmcd
# 
# Track frame offsets:
#     150
#     11660
#     21730
#     34622
#     45995
#     63122
#     72982
#     82552
#     92752
#     102387
#     115595
#     126152
#     139260
#     147790
#     159110
#     168782
#     184407
#     196225
#     209025
#     219352
# 
# Disc length: 3075
# 
# Revision: 3
# Processed by: cddbd v1.5.2PL0 Copyright (c) Steve Scherf et al.
# Submitted via: fre:ac v1.0.31
# 
DISCID=0e0c0114
DTITLE=Various Artist - Great Country Legends
DYEAR=1997
DGENRE=Country
TTITLE0=Patsy Cline - Walkin' After Midnight
TTITLE1=Leroy Van Dyke - Walk On By
TTITLE2=Lynn Anderson - Rose Garden
TTITLE3=Willie Nelson - What A Way To Live
TTITLE4=Townes Van Zandt - If I Needed You
TTITLE5=Jimmy C Newman - Alligator Man
TTITLE6=Jeannie C Riley - The Girl Most Likely
TTITLE7=Johnny Cash - There You Go
TTITLE8=Webb Pierce - In The Jailhouse Now
TTITLE9=You Win Again - Jerry Lee Lewis
TTITLE10=Roger Miller - King Of The Road
TTITLE11=Patti Page - Tennesse Waltz
TTITLE12=Waylon Jennings - Abilene
TTITLE13=Billie Jo Spears - Stand By Your Man
TTITLE14=Ned Miller - From A Jack To A King
TTITLE15=Rod Hart - CB Savage
TTITLE16=Skeeter Davis - (I Can't Help You) I'm Falling Too
TTITLE17=Dave Dudley - Me And My Ole CB
TTITLE18=George Jones - Walk Through This World With Me
TTITLE19=Hank Locklin - Send Me The Pillow You Dream On
EXTD=
EXTT0=
EXTT1=
EXTT2=
EXTT3=
EXTT4=
EXTT5=
EXTT6=
EXTT7=
EXTT8=
EXTT9=
EXTT10=
EXTT11=
EXTT12=
EXTT13=
EXTT14=
EXTT15=
EXTT16=
EXTT17=
EXTT18=
EXTT19=
PLAYORDER=
